<?xml version="1.0" standalone="no"?><!DOCTYPE svg PUBLIC "-//W3C//DTD SVG 1.1//EN" "http://www.w3.org/Graphics/SVG/1.1/DTD/svg11.dtd"><svg t="1761789620475" class="icon" viewBox="0 0 1024 1024" version="1.1" xmlns="http://www.w3.org/2000/svg" p-id="9505" xmlns:xlink="http://www.w3.org/1999/xlink" width="200" height="200"><path d="M648.79 802.31s-7.93 15.87-103.15 15.87-103.14-15.87-103.14-15.87-23.8-31.74-31.74-95.21c-7.93-63.47 0-95.21 0-95.21h269.76s7.93 39.67 0 95.21c-7.92 55.53-31.73 95.21-31.73 95.21z" fill="#FF7168" p-id="9506"></path><path d="M680.53 611.88c0 22.35-60.39 40.47-134.88 40.47s-134.88-18.12-134.88-40.47c0-22.35 65.68-40.17 134.88-40.47 79.74-0.33 134.88 18.12 134.88 40.47z" fill="#DE5349" p-id="9507"></path><path d="M536.33 490.38l-4.53 4.32-33.17 79.65c14.97-1.81 30.87-2.87 47.01-2.93 13.2-0.06 25.64 0.45 37.35 1.35l-23.51-65.03c25.8-23.01 156.93-188.56 274.1-163.93l5.43-28.48c-154.95-14.31-296.24 168.91-302.68 175.05z" fill="#DE5349" p-id="9508"></path><path d="M498.64 574.35l-29.5 70.84c21.75 4.5 48.08 7.16 76.51 7.16 23.3 0 45.22-1.77 64.35-4.89l-27-74.68c-11.71-0.91-24.15-1.41-37.35-1.35a404.37 404.37 0 0 0-47.01 2.92zM540.54 526.58c-2.16-0.86-215.59-105.89-305.19-41.85l-16.08-22.53c101.82-72.75 322.18 34.95 331.51 38.66l-10.24 25.72z" fill="#DE5349" p-id="9509"></path><path d="M533.13 514.53c-30.07-63.87-124.43-234.28-198.9-255.57l7.61-26.61c101.76 29.07 211.7 260.55 216.34 270.39l-25.05 11.79z" fill="#DE5349" p-id="9510"></path><path d="M230.48 463.93m-69.21 0a69.21 69.21 0 1 0 138.42 0 69.21 69.21 0 1 0-138.42 0Z" fill="#DE5349" p-id="9511"></path><path d="M212.49 445.94h35.99v35.99h-35.99z" fill="#FA948C" p-id="9512"></path><path d="M407.24 508.63m-69.21 0a69.21 69.21 0 1 0 138.42 0 69.21 69.21 0 1 0-138.42 0Z" fill="#FF5A4F" p-id="9513"></path><path d="M407.235 483.179l25.448 25.448-25.448 25.449-25.449-25.449z" fill="#FFFFFF" p-id="9514"></path><path d="M421.08 384.06m-69.21 0a69.21 69.21 0 1 0 138.42 0 69.21 69.21 0 1 0-138.42 0Z" fill="#FF7168" p-id="9515"></path><path d="M446.508 385.643l-26.982 23.814-23.814-26.981 26.982-23.815z" fill="#FFFFFF" p-id="9516"></path><path d="M701.4 427.25m-69.21 0a69.21 69.21 0 1 0 138.42 0 69.21 69.21 0 1 0-138.42 0Z" fill="#FF5A4F" p-id="9517"></path><path d="M723.634 414.846l-9.836 34.619-34.619-9.837 9.836-34.618z" fill="#FFFFFF" p-id="9518"></path><path d="M632.19 355.65m-69.21 0a69.21 69.21 0 1 0 138.42 0 69.21 69.21 0 1 0-138.42 0Z" fill="#FF7168" p-id="9519"></path><path d="M654.428 343.244l-9.836 34.618-34.619-9.836 9.836-34.618z" fill="#FFFFFF" p-id="9520"></path><path d="M535.25 332.71m-69.21 0a69.21 69.21 0 1 0 138.42 0 69.21 69.21 0 1 0-138.42 0Z" fill="#FF5A4F" p-id="9521"></path><path d="M557.483 320.312l-9.836 34.618-34.619-9.836 9.836-34.618z" fill="#FFFFFF" p-id="9522"></path><path d="M793.5 298.13m-69.21 0a69.21 69.21 0 1 0 138.42 0 69.21 69.21 0 1 0-138.42 0Z" fill="#DE5349" p-id="9523"></path><path d="M806.942 276.51l8.134 35.058-35.058 8.134-8.134-35.058z" fill="#FA948C" p-id="9524"></path><path d="M576.35 496.25m-69.21 0a69.21 69.21 0 1 0 138.42 0 69.21 69.21 0 1 0-138.42 0Z" fill="#FF7168" p-id="9525"></path><path d="M589.795 474.626l8.134 35.058-35.058 8.134-8.134-35.058z" fill="#FFFFFF" p-id="9526"></path><path d="M367.9 260.93m-55.09 0a55.09 55.09 0 1 0 110.18 0 55.09 55.09 0 1 0-110.18 0Z" fill="#DE5349" p-id="9527"></path><path d="M378.608 243.728l6.475 27.908-27.908 6.474-6.475-27.908z" fill="#FA948C" p-id="9528"></path></svg>