<?xml version="1.0" standalone="no"?><!DOCTYPE svg PUBLIC "-//W3C//DTD SVG 1.1//EN" "http://www.w3.org/Graphics/SVG/1.1/DTD/svg11.dtd"><svg t="1761789251262" class="icon" viewBox="0 0 1024 1024" version="1.1" xmlns="http://www.w3.org/2000/svg" p-id="4219" xmlns:xlink="http://www.w3.org/1999/xlink" width="200" height="200"><path d="M401.832 118.053c-0.115-2.08-0.174-4.17-0.174-6.267 0-60.251 48.339-109.334 108.573-110.31l1.68-0.013 1.894 0.014c60.088 0.975 108.5 49.988 108.5 110.309 0 2.621-0.092 5.23-0.275 7.826a192.737 192.737 0 0 1 5.796-2.045c26.302-8.802 50.877-10.13 74.972 0.872 8.869 4.049 17.252 9.718 25.073 17.095 23.941 22.585 35.208 48.957 35.688 76.023 0.241 13.678-2.535 27.21-6.794 37.222l1.542 0.435 1.473 0.425c3.593 1.057 6.52 2.034 8.71 2.912l2.765 1.122c13.78 5.667 22.355 10.36 29.114 16.73 9.637 9.085 13.524 20.597 10.819 34.45l-7 34.446 88.275 0.315-0.171 48.274-81.474-0.29 77.18 26.328-15.585 45.69-86.664-29.562-7.358 36.226c0.073 0.892 0.143 1.782 0.209 2.667 2.241 0.153 4.557 0.444 6.948 0.869 23.48 4.16 34.767 20.544 34.489 43.476-0.2 16.365-6.408 35.82-15.033 51.298-3.695 6.63-1.696 19.895 5.872 41.931l0.703 2.025c0.405 1.161 0.829 2.362 1.296 3.67l5.545 15.427c2.21 6.209 3.075 8.832 4.063 12.212l0.869 3.04c2.614 9.434 3.475 16.542 2.083 22.506-2.734 11.71-9.509 20.236-19.04 25.672-4.72 2.691-9.755 4.46-14.92 5.53a79.872 79.872 0 0 1 1.183 5.49c3.057 17.135-5.562 45.256-21.39 76.258l-0.51 0.995-1.026 1.98c-14.28 27.31-31.54 51.351-44.58 61.066l-33.45 24.921 20.57-36.287 1.741-3.091c8.453-15.14 17.57-33.149 25.42-51.617 8.641-20.33 14.335-38.141 16.338-52.046-20.12 47.49-82.754 85.24-162.55 103.288 12.17 61.826-4.503 112.772-49.865 151.583-31.314 26.79-87.465 40.982-144.888 42.522l-2.086 0.05c-21.463 0.445-39.623-1.214-48.627-4.55-3.482-1.291-6.118-2.906-7.958-5.57-3.21-4.646-2.202-10.2 1.583-13.904 3.376-3.308 9.344-5.615 18.746-7.771l1.514-0.34c41.864-9.18 66.313-61.485 71.364-159.091l-2.253-0.465c-74.155-15.527-134.146-51.91-159.217-99.366 2.71 12.525 7.815 27.513 14.907 44.197 8.392 19.743 18.231 38.957 27.16 54.708l20.573 36.288-33.452-24.922c-13.355-9.949-31.134-34.924-45.607-63.047l-0.51-0.995c-15.827-31.001-24.446-59.122-21.388-76.259 0.183-1.027 0.388-2.05 0.613-3.075l-0.573-0.063c-7.445-0.866-14.702-2.958-21.248-6.87-9.133-5.462-15.609-13.847-18.262-25.22-1.393-5.963-0.533-13.071 2.083-22.505l1.066-3.713c1.381-4.66 2.712-8.39 8.142-23.435l1.72-4.805 1.244-3.546 0.888-2.597c6.988-20.724 8.836-33.407 5.429-39.945l-0.657-1.2c-8.356-15.318-14.324-34.324-14.519-50.36-0.278-22.934 11.008-39.318 34.49-43.478 3.92-0.695 7.643-1.033 11.164-0.998l-7.826-38.521-85.954 29.318-15.584-45.69 77.18-26.326-81.475 0.29-0.171-48.275 87.517-0.312-6.989-34.394c-2.715-13.91 1.17-25.419 10.808-34.505 6.758-6.37 15.334-11.063 29.115-16.73l2.764-1.122c2.696-1.083 6.517-2.313 11.325-3.662l1.55-0.429c-4.242-10.11-6.962-23.704-6.642-37.449 0.625-26.887 11.903-53.052 35.676-75.477 7.822-7.377 16.204-13.046 25.075-17.095 24.093-11.002 48.668-9.674 74.971-0.872 1.453 0.486 2.868 0.98 4.323 1.507l1.472 0.538-0.098-1.56zM510.444 19.03c-50.583 0.82-91.232 42.093-91.232 92.756a93.33 93.33 0 0 0 1.766 18.114c0.723 3.649-0.575 7.655-4.37 9.875-2.282 1.334-4.305 1.486-6.495 1.192-1.379-0.187-2.72-0.565-4.606-1.233l-1.126-0.41-7.08-2.703a187.633 187.633 0 0 0-6.736-2.407c-22.484-7.525-42.803-8.623-62.107 0.192-7.11 3.247-13.89 7.83-20.322 13.897-20.304 19.153-29.655 40.844-30.173 63.116-0.37 15.954 4.338 31.449 9.073 37.01l9.26 10.873-14.69 3.546-3.113 0.768c-8.308 2.083-14.494 3.91-17.777 5.226l-0.8 0.322c-26.229 10.609-34.162 18.263-31.086 32.9l11.118 54.717-91.366 0.324 0.047 13.166 93.992-0.333 4.934 24.287-89.841 30.647 4.25 12.462 88.234-30.098 9.619 47.338 6.33-1.711-1.092 12.516a240.11 240.11 0 0 0-0.834 14.32l-0.336 12.367-11.563-4.405c-3.859-1.47-9.049-1.726-15.626-0.56-14.307 2.535-20.18 11.062-19.999 25.98 0.155 12.812 5.267 29.098 12.33 42.082l0.785 1.437c3.838 7.27 4.498 16.236 2.814 27.074-1.212 7.81-3.554 16.31-7.274 27.247l-0.761 2.22-1.192 3.398-0.32 0.9-3.97 11.08c-7.265 20.444-9.21 27.827-8.364 32.43l0.097 0.461c2.732 11.706 11.893 17.185 24.37 18.636l0.823 0.087c1.183 0.119 3.647-0.544 6.793-2.072l17.843-8.67 7.782-25.59 6.228 36.673c1.217 7.17 2.571 13.883 4.06 20.135 12.89 54.088 79.18 98.48 164.948 114.06l-1.538 8.469 8.743 0.467c-4.16 102.555-28.749 163.276-75.515 180.241 6.706 0.383 14.412 0.49 22.618 0.27 53.764-1.442 106.4-14.745 133.946-38.311 42.35-36.232 56.389-83.404 42.297-142.95l-2.083-8.801 8.86-1.819c88.733-18.206 155.492-61.527 163.255-110.953 1.177-7.481 2.224-15.955 3.144-25.344l1.753-18.366 12.811 10.83c0.32 0.27 0.641 0.536 0.97 0.804l1.927 1.562 0.822 2.34c0.446 1.268 0.875 2.526 1.287 3.775l14.5 3.084c0.752 0.16 1.317 0.202 1.66 0.168 12.841-1.28 22.392-6.726 25.194-18.725l0.102-0.488c0.852-4.716-1.215-12.361-8.909-33.918l-2.955-8.226c-0.491-1.375-0.939-2.634-1.363-3.847l-1.01-2.907-0.744-2.188c-3.508-10.419-5.734-18.612-6.908-26.162-1.726-11.118-0.988-20.263 3.116-27.63 7.315-13.122 12.655-29.86 12.815-42.964 0.181-14.917-5.694-23.444-19.999-25.98-4.255-0.754-7.95-0.914-11.08-0.526l-9.464 1.175-0.386-9.528c-0.147-3.574-0.38-7.24-0.7-10.957l-1.239-13.712 3.26 0.921 9.646-47.48 88.943 30.34 4.25-12.46-90.55-30.889 4.886-24.05 94.75 0.337 0.046-13.166-92.122-0.327 11.217-55.21c2.786-14.153-5.063-21.75-30.412-32.09l-1.888-0.76-0.672-0.254c-3.889-1.436-10.726-3.38-19.669-5.555l-14.238-3.463 9.772-10.918c4.613-5.155 9.455-20.678 9.172-36.66-0.396-22.418-9.736-44.277-30.181-63.565-6.432-6.066-13.211-10.65-20.32-13.897-19.306-8.815-39.625-7.717-62.11-0.192a187.633 187.633 0 0 0-6.734 2.407l-4.96 1.898-2.764 1.042c-2.145 0.775-3.594 1.204-5.09 1.404-2.19 0.296-4.213 0.144-6.495-1.19-3.671-2.148-5.005-5.969-4.432-9.52l0.322-1.724a93.36 93.36 0 0 0 1.507-16.745c0-50.712-40.69-91.919-91.2-92.756l-1.535-0.013-1.571 0.013z m260.602 672.283a141.26 141.26 0 0 1 2.7 15.79c0.651 5.714 0.454 12.114-0.518 19.144 2.249-8.762 3.046-16.037 2.148-21.07-0.783-4.384-2.073-8.794-3.889-13.423l-0.848-2.165 0.407 1.724z m-516.248-2.06c-2.034 5.018-3.46 9.756-4.3 14.46-0.898 5.033-0.1 12.307 2.148 21.071-0.97-7.03-1.168-13.429-0.518-19.144a141.609 141.609 0 0 1 2.683-15.7l0.403-1.715-0.416 1.028z" fill="#91000A" p-id="4220"></path><path d="M513.321 417.87c168.205-0.878 247.41 43.63 247.41 45.747l0.272 14.63 0.041 2.426c5.914-3.14 13.573-3.881 22.973-2.215 41.568 7.367 26.641 57.956 13.32 81.859-13.32 23.903 24.31 82.695 19.55 103.089-4.76 20.393-23.856 24.564-32.87 25.462-8.653 0.863-21.972-8.92-27.702-13.764-0.948 9.939-2.063 19.216-3.37 27.54-12.049 76.7-142.505 126.369-248.028 126.369-105.525 0-216.436-49.669-234.713-126.37-2.11-8.857-3.95-18.57-5.518-29.14l-0.617 0.563c-4.811 4.278-19.573 15.733-28.906 14.804l-0.892-0.098c-9.326-1.084-27.369-5.624-31.978-25.366-4.76-20.394 32.87-79.188 19.55-103.09-13.32-23.902-28.247-74.49 13.322-81.858 10.345-1.834 18.58-0.753 24.704 3.243 0.275-5.933 0.581-11.963 0.915-18.084 56.22-29.914 140.4-45.162 252.537-45.747z" fill="#FCDAC1" p-id="4221"></path><path d="M764.182 380.966L876.857 419.4l-9.918 29.074-112.675-38.434 9.918-29.074z m6.798-33.006l112.675 0.4-0.108 30.72-112.675-0.4 0.108-30.72z" fill="#D8000F" p-id="4222"></path><path d="M838.217 387.657a87.771 87.771 0 1 0 175.543 0 87.771 87.771 0 1 0-175.543 0z" fill="#FFE400" p-id="4223"></path><path d="M925.989 291.109c53.32 0 96.548 43.227 96.548 96.548s-43.227 96.549-96.548 96.549-96.549-43.228-96.549-96.549 43.227-96.548 96.549-96.548z m0 17.554c-43.627 0-78.995 35.367-78.995 78.994s35.368 78.994 78.995 78.994 78.994-35.367 78.994-78.994-35.368-78.994-78.994-78.994z" fill="#91000A" p-id="4224"></path><path d="M838.217 387.657a87.771 87.771 0 1 0 175.543 0 87.771 87.771 0 1 0-175.543 0z" fill="#FFE400" p-id="4225"></path><path d="M925.989 299.886c2.463 0 4.903 0.102 7.315 0.3-45.054 3.717-80.458 41.46-80.458 87.471s35.404 83.755 80.457 87.472a88.931 88.931 0 0 1-7.314 0.3c-48.475 0-87.772-39.297-87.772-87.772s39.297-87.771 87.772-87.771z" fill="#FFA700" p-id="4226"></path><path d="M875.92 383.67c10.529-4.834 19.632-11.09 27.312-18.77s13.936-16.782 18.769-27.31a4.389 4.389 0 0 1 7.975 0c4.834 10.528 11.089 19.63 18.769 27.31 7.68 7.68 16.783 13.936 27.311 18.77a4.389 4.389 0 0 1 0 7.975c-10.528 4.833-19.631 11.088-27.311 18.768-7.68 7.68-13.935 16.784-18.769 27.312a4.389 4.389 0 0 1-7.975 0c-4.833-10.528-11.089-19.632-18.769-27.312-7.68-7.68-16.783-13.935-27.311-18.768a4.389 4.389 0 0 1 0-7.976zM259.248 380.966L146.572 419.4l9.919 29.074 112.675-38.434-9.918-29.074z m-6.798-33.006l-112.675 0.4 0.108 30.72 112.675-0.4-0.108-30.72z" fill="#D8000F" p-id="4227"></path><path d="M97.44 291.109c-53.32 0-96.548 43.227-96.548 96.548s43.228 96.549 96.549 96.549c53.323 0 96.548-43.228 96.548-96.549s-43.225-96.548-96.548-96.548z m0 17.554c43.63 0 78.995 35.367 78.995 78.994s-35.366 78.994-78.994 78.994c-43.627 0-78.994-35.367-78.994-78.994s35.367-78.994 78.994-78.994z" fill="#91000A" p-id="4228"></path><path d="M9.67 387.657a87.771 87.771 0 1 0 175.542 0 87.771 87.771 0 1 0-175.543 0z" fill="#FFE400" p-id="4229"></path><path d="M97.44 299.886c2.464 0 4.904 0.102 7.317 0.3-45.055 3.717-80.457 41.46-80.457 87.471s35.402 83.755 80.457 87.472a88.931 88.931 0 0 1-7.315 0.3c-48.476 0-87.771-39.297-87.771-87.772s39.295-87.771 87.771-87.771z" fill="#FFA700" p-id="4230"></path><path d="M47.373 383.67c10.528-4.834 19.632-11.09 27.312-18.77s13.935-16.782 18.768-27.31a4.389 4.389 0 0 1 7.977 0c4.832 10.528 11.089 19.63 18.769 27.31 7.68 7.68 16.783 13.936 27.311 18.77a4.389 4.389 0 0 1 0 7.975c-10.528 4.833-19.631 11.088-27.311 18.768-7.68 7.68-13.937 16.784-18.769 27.312a4.389 4.389 0 0 1-7.977 0c-4.833-10.528-11.088-19.632-18.768-27.312-7.68-7.68-16.784-13.935-27.312-18.768a4.389 4.389 0 0 1 0-7.976zM513.16 251.727h-2.358l-10.252 0.062c-11.486 0.096-29.187 0.304-53.101 0.622l-48.655 0.677-117.76 1.764c-9.355-9.353-29.316-65.395 21.08-112.934 50.395-47.54 111.56-3.713 110.255-10.316a102.042 102.042 0 0 1-1.934-19.817c0-55.522 44.559-100.636 99.867-101.533l1.679-0.013c56.083 0 101.546 45.464 101.546 101.546 0 6.781-0.664 13.407-1.933 19.817-1.306 6.603 59.86-37.224 110.254 10.316 50.396 47.539 30.435 103.58 21.082 112.934l-117.763-1.764-70.495-0.958c-20.55-0.255-34.386-0.388-41.512-0.403z" fill="#D8000F" p-id="4231"></path><path d="M511.981 10.24c56.083 0 101.546 45.464 101.546 101.546 0 6.781-0.664 13.407-1.933 19.817-1.306 6.603 59.86-37.224 110.254 10.316a121.729 121.729 0 0 1 10.975 11.776c-50.574-39.47-125.808 1.845-124.548-4.516 1.267-6.409 2.28-9.804 3.32-17.576 7.479-55.954-26.9-104.73-82.981-104.73l-1.68 0.014c-55.307 0.896-99.866 46.01-99.866 101.531 0 6.782 0.664 13.407 1.932 19.818 1.307 6.603-59.86-37.224-110.254 10.314-36.757 34.676-36.085 73.875-29.4 96.18l-8.314 0.123c-9.353-9.353-29.312-65.395 21.082-112.934 50.395-47.54 111.56-3.713 110.255-10.316a102.042 102.042 0 0 1-1.934-19.817c0-55.522 44.559-100.636 99.867-101.533l1.679-0.013z" fill="#C40714" p-id="4232"></path><path d="M511.981 10.24c56.083 0 101.546 45.464 101.546 101.546 0 6.781-0.664 13.407-1.933 19.817-1.306 6.603 59.86-37.224 110.254 10.316a121.729 121.729 0 0 1 10.975 11.776c-50.574-39.47-125.808 1.845-124.548-4.516 1.267-6.409 2.28-9.804 3.32-17.576 7.479-55.954-26.9-104.73-82.981-104.73l-1.68 0.014c-55.307 0.896-99.866 46.01-99.866 101.531 0 6.782 0.664 13.407 1.932 19.818 1.307 6.603-59.86-37.224-110.254 10.314-36.757 34.676-36.085 73.875-29.4 96.18l-8.314 0.123c-9.353-9.353-29.312-65.395 21.082-112.934 50.395-47.54 111.56-3.713 110.255-10.316a102.042 102.042 0 0 1-1.934-19.817c0-55.522 44.559-100.636 99.867-101.533l1.679-0.013z" fill="#C40714" p-id="4233"></path><path d="M473.694 98.392a46.572 41.582 90 1 0 83.163 0 46.572 41.582 90 1 0-83.163 0z" fill="#40AF36" p-id="4234"></path><path d="M491.99 91.739a11.643 9.98 90 1 0 19.959 0 11.643 9.98 90 1 0-19.96 0z" fill="#75DA6C" p-id="4235"></path><path d="M624.48 128.066l-55.22 103.462-7.744-4.133 50.753-95.097c1.606 0.007 5.929-1.893 12.209-4.232z m-212.83 4.232l50.752 95.097-7.743 4.133-55.226-103.483c6.252 2.33 10.574 4.227 12.218 4.253z" fill="#FFE400" p-id="4236"></path><path d="M257.448 260.696c23.037-9.237 153.862-35.416 253.89-35.416 100.027 0 230.851 26.178 253.887 35.416 23.034 9.24 42.224 19.304 37.22 43.116l-32.852 161.685c-86.086-23.612-172.172-35.417-258.257-35.417-86.085 0-172.171 11.805-258.256 35.416L220.23 303.812c-5.003-23.812 14.185-33.877 37.22-43.115z" fill="#D8000F" p-id="4237"></path><path d="M783.966 394.83l-14.374 70.743c-86.085-23.61-172.171-35.415-258.256-35.415-86.085 0-172.171 11.805-258.256 35.415l-14.732-72.508c-3.034-14.933 136.215-52.787 274.786-52.347 137.282 0.436 273.898 39.025 270.833 54.112z" fill="#C40714" p-id="4238"></path><path d="M780.373 412.515l-3.596 17.686-7.187 35.372c-86.085-23.61-172.17-35.415-258.256-35.415-86.084 0-172.17 11.805-258.255 35.415l-7.367-36.254-3.682-18.126c-1.399-6.883 132.532-43.12 271.102-42.68 137.282 0.436 268.603 37.288 267.24 44.002z" fill="#FFE400" p-id="4239"></path><path d="M776.779 430.201l-7.187 35.372c-86.085-23.61-172.171-35.415-258.256-35.415-86.085 0-172.171 11.805-258.256 35.415l-7.367-36.254c-1.337-6.58 128.85-46.618 267.42-46.178 137.283 0.436 264.95 40.641 263.646 47.06z" fill="#D8000F" p-id="4240"></path><path d="M435.931 301.349a76.069 76.069 0 1 0 152.138 0 76.069 76.069 0 1 0-152.138 0z" fill="#FFE400" p-id="4241"></path><path d="M477.637 263.227l-7.577 4.763c4.113 2.598 7.794 5.196 10.933 7.685l-1.72 0.764a97.812 97.812 0 0 1-4.667 1.943c-3.355 1.299-7.036 2.49-10.933 3.68l6.279 8.12a338.353 338.353 0 0 0 8.118-2.924h20.785v9.526h-22.95l-3.68 27.063h26.955l-0.006 1.311c-0.056 5.756-0.473 9.555-1.077 11.571-0.866 1.949-4.005 2.923-9.418 2.923-4.113 0-8.01-0.216-11.908-0.433l2.49 8.985c3.897 0.216 7.686 0.433 11.583 0.433 9.418-0.433 14.722-2.815 16.021-7.145l0.138-0.59c0.99-4.51 1.486-13.077 1.486-25.607h-26.413l1.624-9.742h24.14v-27.171h-12.558c7.578-5.196 13.099-11.258 16.78-18.295v-7.47h-39.729v8.877h28.037c-2.923 3.465-6.711 6.712-11.258 9.743-3.14-2.49-6.928-5.196-11.475-8.01z m62.786-14.29A38.488 38.488 0 0 1 533.82 255c-1.732 1.191-3.464 2.274-5.304 3.14-2.274-2.382-4.222-4.763-5.846-7.361l-8.119 4.546c5.413 8.877 13.856 16.67 25.223 23.382h-22.841c0 5.413-0.542 9.31-1.408 11.8-1.19 2.49-3.464 5.088-6.928 7.902l7.037 6.279c3.68-2.49 6.387-5.196 7.902-8.01 1.407-2.815 2.165-5.955 2.165-9.527h13.315v5.63c0 6.061 3.356 9.2 10.067 9.2h8.228v-8.335h-5.521c-2.815 0-4.114-0.974-4.114-2.923v-7.685c3.031 1.515 6.279 2.922 9.743 4.33l6.82-8.12c-5.846-2.056-11.259-4.33-16.13-6.927a71.292 71.292 0 0 0 4.222-2.923c2.815-2.165 5.52-4.871 8.227-8.227l-7.253-4.439a39.199 39.199 0 0 1-7.144 6.929 55.008 55.008 0 0 1-6.387 3.788c-1.732-1.082-3.464-2.273-4.98-3.572a52.063 52.063 0 0 0 5.088-3.248c2.598-1.948 5.088-4.33 7.686-7.252l-7.145-4.439z m-26.413 57.807h38.754v8.66c-2.057 5.954-5.088 11.15-9.093 15.696 6.495 3.68 12.232 7.253 17.428 10.825l-7.036 7.145c-4.763-3.789-10.5-7.686-17.104-11.583-6.062 4.655-13.315 8.444-21.975 11.366l-3.789-8.984c6.496-2.057 12.016-4.655 16.563-7.686-4.33-2.382-8.985-4.872-13.856-7.253l6.17-5.954c5.196 2.382 10.067 4.871 14.83 7.361 3.14-3.247 5.63-6.711 7.578-10.5h-28.47v-9.093z" fill="#D8000F" p-id="4242"></path><path d="M315.246 342.309c12.234 0 22.756 7.324 27.421 17.827 4.184-7.163 11.957-11.976 20.853-11.976 13.331 0 24.137 10.806 24.137 24.137s-10.806 24.137-24.137 24.137c-8.896 0-16.668-4.813-20.854-11.976-4.664 10.503-15.186 17.828-27.42 17.828-8.29 0-15.796-3.365-21.225-8.802-0.37 13.005-11.03 23.43-24.124 23.43-13.33 0-24.137-10.806-24.137-24.137s10.806-24.137 24.137-24.137c5.863 0 11.24 2.092 15.422 5.568a29.564 29.564 0 0 1-0.062-1.91c0-16.563 13.426-29.99 29.989-29.99z m394.971 0c-12.234 0-22.756 7.324-27.421 17.827-4.184-7.163-11.958-11.976-20.853-11.976-13.331 0-24.137 10.806-24.137 24.137s10.806 24.137 24.137 24.137c8.895 0 16.668-4.813 20.854-11.976 4.664 10.503 15.186 17.828 27.42 17.828 7.604 0 14.547-2.83 19.832-7.495 1.024 12.39 11.402 22.123 24.054 22.123 13.33 0 24.137-10.806 24.137-24.137s-10.806-24.137-24.137-24.137a24.028 24.028 0 0 0-13.906 4.406l0.004-0.243 0.005-0.506c0-16.562-13.426-29.988-29.989-29.988z" fill="#FFE400" p-id="4243"></path><path d="M581.96 539.538c21.685-13.379 41.091-17.75 58.773-13.857l0.756 0.172c8.26 1.934 16.525-3.195 18.459-11.454 1.933-8.26-3.195-16.523-11.455-18.457-26.442-6.192-54.19-0.117-82.664 17.452-7.22 4.453-9.46 13.918-5.008 21.137 4.455 7.22 13.92 9.462 21.139 5.007z m-159.063 0c-21.686-13.379-41.091-17.75-58.774-13.857l-0.757 0.172c-8.26 1.934-16.524-3.195-18.458-11.454-1.934-8.26 3.195-16.523 11.454-18.457 26.443-6.192 54.19-0.117 82.665 17.452 7.219 4.453 9.46 13.918 5.007 21.137-4.454 7.22-13.917 9.462-21.138 5.007z" fill="#340D06" p-id="4244"></path><path d="M500.297 512a7.314 7.314 0 1 0 14.629 0 7.314 7.314 0 1 0-14.629 0z" fill="#D8000F" p-id="4245"></path><path d="M567.434 598.864c7.72-22.732 27.797-30.269 61.473-22.454a2.926 2.926 0 1 0 1.323-5.7c-36.316-8.427-59.51 0.278-68.338 26.273a2.926 2.926 0 0 0 5.542 1.881z m-124.956-4.388c-7.721-22.733-27.797-30.27-61.474-22.455a2.926 2.926 0 1 1-1.322-5.7c36.315-8.427 59.509 0.279 68.337 26.274a2.926 2.926 0 0 1-5.541 1.88z" fill="#340D06" p-id="4246"></path><path d="M620.251 663.406a51.931 40.229 0 1 0 103.863 0 51.931 40.229 0 1 0-103.863 0zM296.96 654.629a51.931 40.229 0 1 0 103.863 0 51.931 40.229 0 1 0-103.863 0z" fill="#D8000F" opacity=".3" p-id="4247"></path><path d="M424.252 646.985c6.709 16.691 34.753 56.65 87.084 56.65 34.888 0 63.48-18.883 85.78-56.65-15.481 94.289-45.316 143.455-89.505 147.503-66.282 6.075-83.359-128.572-83.359-147.503z" fill="#690103" p-id="4248"></path><path d="M511.336 703.634c14.843 0 28.549-3.418 41.113-10.254 2.242 7.065 1.551 12.054-2.068 14.96-5.863 4.706-20.814 7.724-44.18 7.724s-39.576-7.73-44.88-12.43c-3.537-3.133-3.537-8.002 0-14.605l-0.126 0.237c13.167 8.346 29.823 14.368 50.14 14.368z" fill="#FFFFFF" p-id="4249"></path><path d="M504.686 721.189c24.577 0 46.581 11.02 61.339 28.39-15.395 27.783-34.867 42.751-58.414 44.909-28.262 2.59-47.578-20.404-60.439-49.102 14.608-14.932 34.977-24.197 57.514-24.197z" fill="#C40714" p-id="4250"></path><path d="M715.337 452.023l54.135 13.028c2.817 30.951-0.09 56.32-8.72 76.105-4.015 9.202-7.666 14.907-10.792 16.999-0.424 0.285-1.401 25.854 0 58.44s28.418 55.442 34.055 87.04c5.641 31.597-39.11 113.097-64.106 131.72 9.175-16.186 49.391-89.67 45.117-127.26-4.274-37.592-22.718-58.042-26.271-90.627-3.552-32.587 7.606-58.475 6.895-58.915-4.403-2.716-7.015-16.308-7.015-41.367 0-31.302-7.767-53.024-23.298-65.163z m-404.8-1.463c-15.531 12.139-23.298 33.86-23.298 65.163 0 25.059-2.61 38.652-7.014 41.367-0.712 0.439 10.448 26.328 6.894 58.915-3.553 32.585-21.995 53.036-26.27 90.627-4.274 37.59 35.941 111.074 45.116 127.26-24.997-18.623-69.746-100.123-64.108-131.72 5.64-31.598 32.655-54.454 34.057-87.04 1.401-32.586 0.424-58.155 0-58.439-3.126-2.095-6.778-7.798-10.79-16.998-8.631-19.787-11.54-45.156-8.722-76.107l54.135-13.028z m231.53 219.282c36.37 0.817 55.127 11.683 56.274 32.597 1.717 31.374 20.458 54.707 46.65 47.69 17.462-4.682 24.84-12.578 22.132-23.695 9.72 20.783 6.363 33.377-10.07 37.78-24.651 6.605-58.702-5.569-67.19-47.721-5.66-28.102-21.591-43.652-47.797-46.65z m-58.163 0c-36.37 0.817-55.129 11.683-56.274 32.597-1.72 31.374-20.458 54.707-46.65 47.69-17.463-4.682-24.84-12.578-22.134-23.695-9.72 20.783-6.362 33.377 10.072 37.78 24.65 6.605 58.701-5.569 67.189-47.721 5.66-28.102 21.592-43.652 47.797-46.65z m-6.591 116.26c9.701 6.737 13.963 14.51 12.78 23.32-1.18 8.811-17.17 13.42-47.97 13.827-4.303 106.054-30.504 164.357-78.603 174.905-72.148 15.824 106.672 32.034 174.13-25.68 44.97-38.476 59.997-89.1 45.078-151.873-32.467 0.065-49.963-3.661-52.488-11.179-2.525-7.516-0.055-16.25 7.41-26.198-12.822 7.643-24.04 11.464-33.652 11.464-9.614 0-18.51-2.862-26.685-8.585z" fill="#340D06" p-id="4251"></path><path d="M738.743 315.977a11.703 11.703 0 1 0 23.406 0 11.703 11.703 0 1 0-23.406 0z" fill="#FFE400" p-id="4252"></path><path d="M750.446 304.274c0.75 0 1.485 0.07 2.194 0.205a11.706 11.706 0 0 0 0 22.996 11.703 11.703 0 1 1-2.194-23.2z" fill="#FFA700" p-id="4253"></path><path d="M715.337 305.737a11.703 11.703 0 1 0 23.406 0 11.703 11.703 0 1 0-23.406 0z" fill="#FFE400" p-id="4254"></path><path d="M727.04 294.034c0.75 0 1.485 0.07 2.194 0.205a11.706 11.706 0 0 0 0 22.996 11.703 11.703 0 1 1-2.194-23.2z" fill="#FFA700" p-id="4255"></path></svg>